<svg xmlns="http://www.w3.org/2000/svg" fill="none" viewBox="0 0 765 667"><path fill="#ffa8af" d="M177.498 28.7917L177.498 507.208C262.011 518.107 282.333 412.868 367.498 412.868C452.663 412.868 472.984 518.107 557.498 507.208L557.498 28.7917C472.984 17.8923 452.663 123.132 367.498 123.132C282.333 123.132 262.011 17.8923 177.498 28.7917Z"></path><path stroke="#000000" stroke-linecap="round" stroke-width="16" d="M391.498 204C401.44 193.334 417.557 193.333 427.498 203.997"></path><path stroke="#000000" stroke-linecap="round" stroke-width="16" d="M307.498 204C317.44 193.334 333.557 193.333 343.498 203.997"></path><path stroke="#000000" stroke-linecap="round" stroke-width="16" d="M397.498 264C380.928 279.998 354.065 280 337.498 264.004"></path><path fill="#000000" d="M351.498 280C351.498 295.464 358.661 308 367.498 308C376.334 308 383.498 295.464 383.498 280H351.498Z"></path><path fill="#ffa8af" d="M325.5 579.51L245.5 639.51H325.5V579.51Z"></path><path stroke="#ffa8af" stroke-width="80" d="M313.5 639.51L313.5 392.51"></path><path fill="#ffa8af" d="M409.5 579.51L489.5 639.51H409.5V579.51Z"></path><path stroke="#ffa8af" stroke-width="80" d="M421.5 639.51L421.5 392.51"></path><path stroke="#ffa8af" stroke-linejoin="round" stroke-width="80" d="M520.5 275.51L714.5 275.51L595.5 156.51"></path><path stroke="#ffa8af" stroke-linejoin="round" stroke-width="80" d="M52 481.01L208.5 279.51"></path></svg>