<svg xmlns="http://www.w3.org/2000/svg" fill="none" viewBox="0 0 794 1111"><path stroke="#89dcff" stroke-linecap="round" stroke-width="180" d="M385.5 799.273L385.5 768.054C385.5 688.31 450.85 624.04 530.584 625.369L574.556 626.102C630.123 627.028 675.667 582.238 675.667 526.663V526.663C675.667 471.089 630.125 426.299 574.559 427.224L530.584 427.956C450.85 429.283 385.5 365.012 385.5 285.267L385.5 279"></path><circle cx="12" cy="12" r="12" fill="#000000" transform="matrix(-1 0 0 1 369.5 255)"></circle><circle cx="12" cy="12" r="12" fill="#000000" transform="matrix(-1 0 0 1 465.5 255)"></circle><path stroke="#000000" stroke-linecap="round" stroke-width="16" d="M435.5 307C418.93 322.998 392.067 323 375.5 307.004"></path><path fill="#89dcff" fill-rule="evenodd" d="M475.5 1033L475.5 770H435.5V1003L435.5 1063H475.5H515.5L475.5 1033Z" clip-rule="evenodd"></path><path fill="#89dcff" fill-rule="evenodd" d="M295.5 1033L295.5 770H335.5V1003L335.5 1063H295.5H255.5L295.5 1033Z" clip-rule="evenodd"></path><path stroke="#89dcff" stroke-width="40" d="M410 437H318C207.543 437 118 347.457 118 237V195.5"></path><path stroke="#89dcff" stroke-width="40" d="M465.267 426.241L530.321 361.188C608.425 283.083 608.425 156.45 530.321 78.3449L500.976 49"></path></svg>