<svg xmlns="http://www.w3.org/2000/svg" fill="none" viewBox="0 0 662 532"><g clip-path="url(#a)"><path fill="#89dcff" d="M331.842 -22.9375C453.086 -20.0998 550.5 79.074 550.5 201C550.5 324.712 450.212 425 326.5 425C204.574 425 105.4 327.586 102.562 206.342L102.5 -23L331.842 -22.9375Z"></path><circle cx="450.5" cy="149" r="12" fill="#000000"></circle><circle cx="354.5" cy="149" r="12" fill="#000000"></circle><path stroke="#000000" stroke-linecap="round" stroke-width="16" d="M372.5 189C389.07 204.998 415.933 205 432.5 189.004"></path><path fill="#89dcff" fill-rule="evenodd" d="M296 478.744V405.744H256V448.744V508.744H296H336L296 478.744Z" clip-rule="evenodd"></path><path fill="#89dcff" fill-rule="evenodd" d="M393 478.744V405.744H353V448.744V508.744H393H433L393 478.744Z" clip-rule="evenodd"></path><path stroke="#89dcff" stroke-width="40" d="M639.5 141.244C639.5 141.244 595.5 219.744 506 219.744"></path><path stroke="#89dcff" stroke-width="40" d="M23 141.244C23 141.244 67 219.744 156.5 219.744"></path></g><defs><clipPath id="a"><path fill="#fafafa" d="M0 0H662V532H0z"></path></clipPath></defs></svg>
