<svg xmlns="http://www.w3.org/2000/svg" fill="none" viewBox="0 0 666 1000"><path fill="#ffce51" d="M264.091 912.49L184.091 972.49H264.091V912.49Z"></path><path stroke="#ffce51" stroke-width="40" d="M244.091 972.49L244.091 943.492L294.591 450"></path><path fill="#ffce51" d="M364.591 912.49L444.591 972.49H364.591V912.49Z"></path><path stroke="#ffce51" stroke-width="40" d="M384.591 972.49L384.591 943.492L334.091 450"></path><path fill="#ffce51" d="M313.641 28L335.211 174.342L398.959 40.8595L376.435 187.058L476.694 78.2954L412.08 211.36L539.943 136.981L438.978 245.088L583.084 211.703L454.739 285.247L602.282 295.819L457.962 328.266L595.834 381.859L448.362 370.326L564.312 462.176L426.793 407.686L510.517 529.633L395.168 437.028L439.229 578.237L356.3 455.746L356.782 603.668L313.641 462.176L270.5 603.668L270.983 455.746L188.053 578.237L232.115 437.028L116.765 529.633L200.491 407.686L62.9697 462.176L178.92 370.326L31.4477 381.859L169.321 328.266L25 295.819L172.545 285.247L44.1992 211.703L188.306 245.088L87.3398 136.981L215.202 211.36L150.588 78.2954L250.848 187.058L228.324 40.8595L292.072 174.342L313.641 28Z"></path><path stroke="#000000" stroke-linecap="round" stroke-width="16" d="M349.641 342.834C349.641 352.775 341.581 360.834 331.638 360.834C321.839 360.834 313.869 353.006 313.641 343.263"></path><path stroke="#000000" stroke-linecap="round" stroke-width="16" d="M313.641 342.834C313.641 352.775 305.581 360.834 295.638 360.834C285.839 360.834 277.869 353.006 277.641 343.263"></path><circle cx="361.641" cy="282.834" r="12" fill="#000000"></circle><circle cx="265.641" cy="282.834" r="12" fill="#000000"></circle><path stroke="#ffce51" stroke-linejoin="round" stroke-width="40" d="M407.591 419.5L509.591 528.5L640.591 479"></path><path stroke="#ffce51" stroke-linejoin="round" stroke-width="40" d="M219.091 420.5L119.091 530L203.591 647.5"></path></svg>