<svg xmlns="http://www.w3.org/2000/svg" fill="none" viewBox="0 0 885 1130"><path fill="#f4583e" fill-rule="evenodd" d="M303.313 267.063C291.028 244.139 284.11 218.243 284.11 190.83C284.11 97.0353 365.091 21 464.986 21V173.903C478.632 151.687 497.575 132.627 521.33 118.81C602.407 71.6516 708.848 103.423 759.074 189.774L626.163 267.08C652.3 267.758 678.357 274.632 702.268 288.335C783.647 334.971 809.353 443.038 759.684 529.709L626.658 453.476C638.944 476.4 645.861 502.297 645.861 529.71C645.861 623.504 564.88 699.539 464.986 699.539V546.636C451.339 568.852 432.397 587.912 408.641 601.73C327.564 648.888 221.123 617.116 170.897 530.765L303.808 453.459C277.671 452.781 251.614 445.907 227.703 432.204C146.324 385.568 120.619 277.501 170.288 190.83L303.313 267.063ZM465.081 359.88C465.049 359.825 465.017 359.77 464.986 359.715L464.986 359.88C465.017 359.88 465.049 359.88 465.081 359.88ZM464.986 360.659V360.824L464.89 360.659L464.986 360.659Z" clip-rule="evenodd"></path><path stroke="#000000" stroke-linecap="round" stroke-width="16" d="M508.986 281C518.928 291.666 535.046 291.667 544.986 281.003"></path><path stroke="#000000" stroke-linecap="round" stroke-width="16" d="M424.986 281C434.928 291.666 451.046 291.667 460.986 281.003"></path><ellipse cx="16" cy="24" fill="#000000" rx="16" ry="24" transform="matrix(-1 0 0 1 500.986 323)"></ellipse><path fill="#f4583e" fill-rule="evenodd" d="M371.088 1031.46L421.588 537.965L461.38 542.037L410.984 1034.51V1062.49H370.984H330.984L370.984 1032.49V1032.47L371.088 1031.46Z" clip-rule="evenodd"></path><path fill="#f4583e" fill-rule="evenodd" d="M566.986 1026.49L566.986 616.5H526.986L526.986 996.492L526.986 1056.49H566.986H606.986L566.986 1026.49Z" clip-rule="evenodd"></path><path stroke="#f4583e" stroke-width="40" d="M857.944 596.959C857.944 596.959 721.077 635.505 621.079 535.508"></path><path stroke="#f4583e" stroke-width="40" d="M26.8885 370.64C26.8885 370.64 144.343 491.122 305.985 447.81"></path></svg>