<svg xmlns="http://www.w3.org/2000/svg" fill="none" viewBox="0 0 612 752"><path fill="#f4583e" d="M187.667 202.167C44.954 175.441 81.7626 421.029 81.7626 421.029C81.7626 421.029 245.654 468.933 350.043 364.544C454.433 260.154 406.529 96.2626 406.529 96.2626C406.529 96.2626 160.941 59.4539 187.667 202.167Z"></path><path fill="#000000" d="M194.405 287.231C195.222 281.884 196.122 273.891 195.139 269.201C194.407 265.696 192.233 262.619 189.189 260.782C182.341 256.51 172.933 261.374 172.214 269.545C172.172 270.003 172.173 270.464 172.173 270.938C172.173 271.131 172.173 271.326 172.171 271.524C171.973 271.527 171.777 271.527 171.584 271.526C171.111 271.526 170.649 271.526 170.191 271.568C162.02 272.286 157.157 281.694 161.428 288.543C163.266 291.587 166.342 293.761 169.848 294.493C174.537 295.476 182.53 294.575 187.877 293.759C188.525 293.66 189.656 293.46 190.728 293.266C192.35 292.973 193.619 291.704 193.913 290.081C194.107 289.009 194.307 287.878 194.405 287.231Z"></path><path fill="#000000" d="M279.258 202.377C280.074 197.03 280.975 189.037 279.992 184.348C279.26 180.842 277.086 177.766 274.042 175.928C267.193 171.657 257.785 176.52 257.067 184.691C257.025 185.149 257.025 185.611 257.026 186.084C257.026 186.277 257.026 186.473 257.023 186.671C256.825 186.673 256.63 186.673 256.437 186.673C255.963 186.673 255.502 186.672 255.044 186.714C246.873 187.433 242.009 196.84 246.281 203.689C248.118 206.733 251.195 208.907 254.7 209.639C259.39 210.622 267.383 209.722 272.73 208.905C273.377 208.807 274.508 208.607 275.58 208.413C277.203 208.119 278.472 206.85 278.765 205.228C278.96 204.156 279.159 203.025 279.258 202.377Z"></path><path stroke="#000000" stroke-linecap="round" stroke-width="16" d="M260.57 275.071C267.6 268.042 278.364 267.409 284.614 273.659C290.773 279.818 290.247 290.363 283.501 297.395"></path><path stroke="#000000" stroke-linecap="round" stroke-width="16" d="M283.198 297.698C290.228 290.669 300.992 290.036 307.242 296.286C313.401 302.445 312.875 312.989 306.129 320.022"></path><path fill="#f4583e" d="M503 522L583 582L503 582L503 522Z"></path><path stroke="#f4583e" stroke-width="40" d="M523 582L523 482C523 392.53 450.47 320 361 320V320"></path><path fill="#f4583e" d="M340.976 604.938L380.258 696.899L310.976 656.899L340.976 604.938Z"></path><path stroke="#f4583e" stroke-width="40" d="M328.296 666.899L378.296 580.296C423.031 502.813 396.483 403.735 319 359V359"></path><path stroke="#f4583e" stroke-linejoin="round" stroke-width="40" d="M393 234C393 234 546.305 234 583 55"></path><path stroke="#f4583e" stroke-linejoin="round" stroke-width="40" d="M208 394C208 394 208 547.305 29 584"></path></svg>