<svg xmlns="http://www.w3.org/2000/svg" fill="none" viewBox="0 0 584 655"><path fill="#ffce51" d="M203 223.919C125.835 185.896 72 99.9428 72 0H512C512 100.947 457.078 187.622 378.666 225.051L474.394 400H106.653L203 223.919Z"></path><path stroke="#000000" stroke-linecap="round" stroke-linejoin="round" stroke-width="16" d="M322 156C305.43 171.998 278.567 172 262 156.004L322 156Z"></path><path stroke="#000000" stroke-linecap="round" stroke-width="16" d="M316 88C325.942 98.6656 342.06 98.6668 352 88.0027"></path><path stroke="#000000" stroke-linecap="round" stroke-width="16" d="M232 88C241.942 98.6656 258.06 98.6668 268 88.0027"></path><path fill="#ffce51" d="M244 625L204 655H284V625H244Z"></path><path stroke="#ffce51" stroke-width="40" d="M264 655L264 625.5L232.5 367"></path><path fill="#ffce51" d="M340 625L380 655H300V625H340Z"></path><path stroke="#ffce51" stroke-width="40" d="M320 655L320 625.5L351.5 367"></path><path stroke="#ffce51" stroke-linejoin="round" stroke-width="40" d="M366 228.225C505.336 206.584 596.555 297.206 505.336 400"></path><path stroke="#ffce51" stroke-linejoin="round" stroke-width="40" d="M218 228.225C78.6644 206.584 -12.5554 297.206 78.6644 400"></path></svg>