<svg xmlns="http://www.w3.org/2000/svg" fill="none" viewBox="0 0 872 791"><g clip-path="url(#a)"><path fill="#47b86d" d="M691.694 339.189L825.913 261.697L802.152 220.542L664.991 299.732C659.718 293.158 654.167 286.817 648.356 280.725L761.508 167.573L727.905 133.97L612.828 249.046C606.412 244.195 599.789 239.602 592.977 235.283L674.936 93.3254L633.781 69.5643L550.874 213.163C543.722 210.121 536.424 207.355 528.994 204.878L572.097 44.0143L526.194 31.7146L482.823 193.58C475.307 192.38 467.695 191.465 460 190.848V23H412.478V190.848C404.783 191.465 397.171 192.38 389.655 193.58L346.283 31.7146L300.38 44.0143L343.484 204.878C336.054 207.355 328.756 210.121 321.604 213.164L238.697 69.5643L197.542 93.3254L279.501 235.283C272.688 239.603 266.066 244.195 259.649 249.046L144.573 133.97L110.97 167.573L224.122 280.725C218.311 286.817 212.76 293.158 207.487 299.732L70.3254 220.542L46.5643 261.697L180.784 339.189C176.43 346.905 172.417 354.839 168.762 362.969L21.0143 323.38L8.71463 369.283L152.846 407.903C150.46 416.932 148.494 426.13 146.97 435.478H0V483H872.478V435.478H725.508C723.984 426.13 722.018 416.932 719.632 407.903L863.764 369.283L851.464 323.38L703.716 362.97C700.061 354.839 696.047 346.905 691.694 339.189Z"></path><circle cx="484" cy="319" r="12" fill="#000000"></circle><circle cx="388" cy="319" r="12" fill="#000000"></circle><path stroke="#000000" stroke-linecap="round" stroke-linejoin="round" stroke-width="16" d="M406 375C422.57 390.998 449.433 391 466 375.004L406 375Z"></path><path fill="#47b86d" fill-rule="evenodd" d="M363 692L363 429H403V662L403 722H363H323L363 692Z" clip-rule="evenodd"></path><path fill="#47b86d" fill-rule="evenodd" d="M509 692L509 429H469V662L469 722H509H549L509 692Z" clip-rule="evenodd"></path><path stroke="#47b86d" stroke-width="40" d="M564 454.5V478C564 535.714 610.786 582.5 668.5 582.5V582.5"></path><path stroke="#47b86d" stroke-width="40" d="M308 463V647.5"></path></g><defs><clipPath id="a"><path fill="#fafafa" d="M0 0H872V791H0z"></path></clipPath></defs></svg>