<svg xmlns="http://www.w3.org/2000/svg" fill="none" viewBox="0 0 782 717"><path fill="#80d9ff" d="M185 398.379C185 398.379 222.042 357.168 277.866 327.758C222.042 298.348 185 257.136 185 257.136C185 257.136 213.731 225.171 258.72 197.454C194.505 163.265 152 116 152 116C152 116 256.318 0 385 0C513.682 0 618 116 618 116C618 116 575.495 163.265 511.28 197.454C556.269 225.171 585 257.136 585 257.136C585 257.136 547.958 298.347 492.134 327.758C547.958 357.168 585 398.379 585 398.379C585 398.379 495.457 498 385 498C274.543 498 185 398.379 185 398.379Z"></path><path stroke="#000000" stroke-linecap="round" stroke-width="16" d="M355 176C371.57 191.998 398.433 192 415 176.004"></path><path fill="#000000" d="M343.398 89.2686C344.485 86.9912 347.727 86.9912 348.813 89.2686L352.893 97.8181C353.33 98.7346 354.202 99.3677 355.208 99.5004L364.6 100.738C367.102 101.068 368.104 104.151 366.274 105.888L359.403 112.41C358.667 113.11 358.334 114.134 358.519 115.132L360.244 124.447C360.703 126.928 358.08 128.834 355.863 127.63L347.537 123.111C346.644 122.627 345.567 122.627 344.675 123.111L336.349 127.63C334.131 128.834 331.509 126.928 331.968 124.447L333.693 115.132C333.878 114.134 333.545 113.11 332.808 112.41L325.938 105.888C324.108 104.151 325.11 101.068 327.611 100.738L337.003 99.5004C338.01 99.3677 338.881 98.7346 339.319 97.8181L343.398 89.2686Z"></path><path fill="#000000" d="M421.183 89.2354C422.27 86.958 425.512 86.958 426.599 89.2354L430.678 97.7849C431.115 98.7014 431.987 99.3345 432.994 99.4672L442.385 100.705C444.887 101.035 445.889 104.118 444.059 105.855L437.188 112.377C436.452 113.076 436.119 114.101 436.304 115.099L438.029 124.414C438.488 126.895 435.866 128.8 433.648 127.597L425.322 123.078C424.429 122.594 423.352 122.594 422.46 123.078L414.134 127.597C411.916 128.8 409.294 126.895 409.753 124.414L411.478 115.099C411.663 114.101 411.33 113.076 410.594 112.377L403.723 105.855C401.893 104.118 402.895 101.035 405.397 100.705L414.788 99.4672C415.795 99.3345 416.666 98.7014 417.104 97.7849L421.183 89.2354Z"></path><path fill="#80d9ff" d="M538.629 657L618.629 717L538.629 717L538.629 657Z"></path><path stroke="#80d9ff" stroke-width="40" d="M558.629 717L558.629 617C558.629 527.53 486.099 455 396.629 455V455"></path><path stroke="#80d9ff" stroke-linejoin="round" stroke-width="40" d="M552 249C552 249 705.305 249 742 70"></path><path fill="#80d9ff" d="M242.871 657L162.871 717L242.871 717L242.871 657Z"></path><path stroke="#80d9ff" stroke-width="40" d="M222.871 717L222.871 617C222.871 527.53 295.401 455 384.871 455V455"></path><path stroke="#80d9ff" stroke-linejoin="round" stroke-width="40" d="M229 249C229 249 75.6953 249 39 428"></path></svg>