<svg xmlns="http://www.w3.org/2000/svg" fill="none" viewBox="0 0 751 642"><g clip-path="url(#a)"><path fill="#f4583e" d="M132.498 68.3215L56 0C56 245.496 138.618 456.895 361.994 456.895C585.369 456.895 667.987 245.496 667.987 0L591.489 68.3215L514.991 0L438.492 68.3215L361.994 0L285.495 68.3215L208.997 0L132.498 68.3215Z"></path><path stroke="#000000" stroke-linecap="round" stroke-width="16" d="M455.987 200.895C446.045 190.229 429.928 190.228 419.987 200.892"></path><path stroke="#000000" stroke-linecap="round" stroke-width="16" d="M539.987 200.895C530.045 190.229 513.928 190.228 503.987 200.892"></path><path stroke="#000000" stroke-linecap="round" stroke-width="16" d="M449.987 248.895C466.557 264.893 493.42 264.895 509.987 248.899"></path><path fill="#000000" d="M495.987 264.895C495.987 280.359 488.824 292.895 479.987 292.895C471.151 292.895 463.987 280.359 463.987 264.895H495.987Z"></path><path fill="#f4583e" d="M250 561.5L190 641.5L190 561.5L250 561.5Z"></path><path stroke="#f4583e" stroke-linejoin="round" stroke-width="40" d="M190 581.5H336.5L276.5 401"></path><path fill="#f4583e" d="M60 561.5L-3.49691e-06 641.5L0 561.5L60 561.5Z"></path><path stroke="#f4583e" stroke-linejoin="round" stroke-width="40" d="M6.10352e-05 581.5H146.5L215 388.5"></path><path stroke="#f4583e" stroke-linejoin="round" stroke-width="40" d="M644 581.5H497.5L464 404.5"></path><path stroke="#f4583e" stroke-linejoin="round" stroke-width="40" d="M750.5 485.5H604L540 356"></path></g><defs><clipPath id="a"><path fill="#fafafa" d="M0 0H750.5V641.5H0z"></path></clipPath></defs></svg>