<svg xmlns="http://www.w3.org/2000/svg" fill="none" viewBox="0 0 608 665"><path fill="#ffa8af" d="M512.6 326L299.8 46L87 326L299.8 606L512.6 326Z"></path><path stroke="#000000" stroke-linecap="round" stroke-linejoin="round" stroke-width="16" d="M270.3 354C286.87 369.998 313.732 370 330.3 354.004L270.3 354Z"></path><path fill="#000000" d="M264.916 302.782C269.274 299.578 275.563 294.563 278.184 290.552C280.145 287.555 280.783 283.843 279.93 280.391C278.107 272.528 268.016 269.315 261.73 274.584C261.377 274.878 261.051 275.205 260.716 275.54C260.58 275.677 260.442 275.815 260.3 275.953C260.158 275.815 260.02 275.677 259.883 275.54C259.549 275.205 259.223 274.878 258.869 274.584C252.584 269.315 242.492 272.528 240.67 280.391C239.817 283.843 240.455 287.555 242.416 290.552C245.037 294.563 251.326 299.578 255.684 302.782C256.211 303.17 257.152 303.828 258.048 304.449C259.403 305.388 261.197 305.388 262.552 304.449C263.447 303.828 264.388 303.17 264.916 302.782Z"></path><path fill="#000000" d="M344.916 302.782C349.274 299.578 355.563 294.563 358.184 290.552C360.145 287.555 360.783 283.843 359.93 280.391C358.107 272.528 348.016 269.315 341.73 274.584C341.377 274.878 341.051 275.205 340.716 275.54C340.58 275.677 340.442 275.815 340.3 275.953C340.158 275.815 340.02 275.677 339.883 275.54C339.549 275.205 339.223 274.878 338.869 274.584C332.584 269.315 322.492 272.528 320.67 280.391C319.817 283.843 320.455 287.555 322.416 290.552C325.037 294.563 331.326 299.578 335.684 302.782C336.211 303.17 337.152 303.828 338.048 304.449C339.403 305.388 341.197 305.388 342.552 304.449C343.447 303.828 344.388 303.17 344.916 302.782Z"></path><path fill="#ffa8af" d="M483 573.5L563 633.5H483V573.5Z"></path><path stroke="#ffa8af" stroke-linejoin="round" stroke-width="40" d="M503 633.5L503 487L322.5 547"></path><path stroke="#ffa8af" stroke-linejoin="round" stroke-width="40" d="M460 306L547 33"></path><path stroke="#ffa8af" stroke-linejoin="round" stroke-width="40" d="M131 306L44 33"></path><path fill="#ffa8af" d="M131 520L51 460L131 460L131 520Z"></path><path stroke="#ffa8af" stroke-linejoin="round" stroke-width="40" d="M111 460L111 606.5L291.5 546.5"></path></svg>