<svg xmlns="http://www.w3.org/2000/svg" fill="none" viewBox="0 0 651 849"><path fill="#ffa04b" d="M363.858 365C363.858 352.226 372.09 340.977 384.086 336.586C450.906 312.126 551.039 261.707 551.039 179.198L544.044 179.198L538.709 178.703C533.764 178.244 530.854 172.522 533.168 167.807L538.24 157.471C540.755 152.344 537.097 146.232 531.708 146.559L520.844 147.219C515.889 147.52 512.25 142.301 513.915 137.28L517.565 126.275C519.376 120.816 514.944 115.325 509.654 116.472L498.988 118.785C494.123 119.84 489.829 115.23 490.812 110.006L492.966 98.5554C494.035 92.8756 488.92 88.1167 483.836 90.0612L473.585 93.9805C468.909 95.7678 464.048 91.8606 464.329 86.5402L464.943 74.8766C465.248 69.0906 459.555 65.1628 454.78 67.864L445.153 73.3096C440.762 75.7932 435.432 72.6687 435.005 67.3595L434.067 55.7201C433.602 49.9471 427.446 46.9288 423.078 50.3323L414.271 57.193C410.253 60.3227 404.564 58.0447 403.437 52.8548L400.965 41.4771C399.74 35.8336 393.247 33.7872 389.374 37.8231L381.566 45.9596C378.004 49.6715 372.071 48.2859 370.267 43.3205L366.313 32.437C364.352 27.038 357.654 26.004 354.355 30.591L347.705 39.8384C344.672 44.0557 338.615 43.5909 336.172 38.9521L330.816 28.783C328.158 23.739 321.391 23.739 318.734 28.783L313.378 38.9521C310.935 43.5909 304.878 44.0557 301.845 39.8384L295.195 30.591C291.896 26.004 285.198 27.038 283.237 32.437L279.282 43.3205C277.479 48.2859 271.546 49.6715 267.984 45.9596L260.176 37.8231C256.303 33.7872 249.81 35.8336 248.584 41.4771L246.113 52.8547C244.986 58.0447 239.297 60.3226 235.279 57.193L226.472 50.3323C222.104 46.9288 215.948 49.9471 215.483 55.7201L214.545 67.3595C214.117 72.6687 208.788 75.7932 204.397 73.3096L194.77 67.864C189.995 65.1627 184.302 69.0906 184.607 74.8766L185.221 86.5402C185.501 91.8606 180.64 95.7678 175.965 93.9805L165.714 90.0612C160.63 88.1167 155.515 92.8747 156.584 98.5554L158.738 110.006C159.721 115.23 155.427 119.84 150.562 118.785L139.896 116.472C134.606 115.325 130.174 120.816 131.985 126.275L135.635 137.28C137.3 142.301 133.661 147.52 128.706 147.219L117.842 146.559C112.453 146.232 108.795 152.344 111.31 157.471L116.382 167.807C118.696 172.522 115.786 178.244 110.841 178.703L105.506 179.198L100 179.198L100.002 179.71C100.414 261.916 200.271 312.177 266.954 336.586C278.949 340.977 287.181 352.226 287.181 365V365C287.181 377.774 278.949 389.023 266.954 393.414C200.271 417.823 100.414 468.084 100.001 550.29L100 550.802L105.506 550.802L110.841 551.297C115.786 551.756 118.696 557.478 116.382 562.193L111.31 572.529C108.794 577.656 112.453 583.768 117.842 583.441L128.706 582.781C133.661 582.48 137.3 587.699 135.635 592.719L131.985 603.725C130.174 609.184 134.606 614.675 139.896 613.528L150.562 611.215C155.427 610.16 159.721 614.77 158.738 619.994L156.584 631.445C155.515 637.125 160.63 641.883 165.714 639.939L175.964 636.02C180.64 634.232 185.501 638.139 185.221 643.46L184.607 655.123C184.302 660.909 189.995 664.837 194.77 662.136L204.397 656.69C208.788 654.207 214.117 657.331 214.545 662.64L215.483 674.28C215.948 680.053 222.104 683.071 226.472 679.668L235.279 672.807C239.297 669.677 244.986 671.955 246.113 677.145L248.584 688.523C249.81 694.166 256.303 696.213 260.176 692.177L267.984 684.04C271.546 680.328 277.479 681.714 279.282 686.679L283.237 697.563C285.198 702.962 291.896 703.996 295.195 699.409L301.845 690.162C304.878 685.944 310.935 686.409 313.378 691.048L318.734 701.217C321.391 706.261 328.158 706.261 330.816 701.217L336.172 691.048C338.615 686.409 344.672 685.944 347.705 690.162L354.355 699.409C357.654 703.996 364.352 702.962 366.313 697.563L370.267 686.679C372.071 681.714 378.004 680.328 381.566 684.04L389.374 692.177C393.247 696.213 399.74 694.166 400.965 688.523L403.436 677.145C404.564 671.955 410.253 669.677 414.271 672.807L423.077 679.668C427.446 683.071 433.602 680.053 434.067 674.28L435.004 662.64C435.432 657.331 440.762 654.207 445.153 656.69L454.78 662.136C459.555 664.837 465.248 660.909 464.943 655.123L464.329 643.46C464.048 638.139 468.909 634.232 473.585 636.02L483.836 639.939C488.92 641.883 494.035 637.124 492.966 631.445L490.812 619.994C489.829 614.77 494.123 610.16 498.988 611.215L509.654 613.528C514.944 614.675 519.376 609.184 517.565 603.725L513.915 592.72C512.25 587.699 515.889 582.48 520.844 582.781L531.708 583.441C537.097 583.768 540.755 577.656 538.24 572.529L533.168 562.193C530.854 557.478 533.764 551.756 538.709 551.297L544.044 550.802L551.039 550.802C551.039 468.293 450.906 417.874 384.086 393.414C372.09 389.023 363.858 377.774 363.858 365V365Z"></path><ellipse cx="325.521" cy="249.475" fill="#000000" rx="16" ry="24"></ellipse><path fill="#000000" d="M283.918 154.743C285.005 152.466 288.247 152.466 289.333 154.743L293.413 163.293C293.85 164.209 294.722 164.842 295.728 164.975L305.12 166.213C307.622 166.543 308.624 169.626 306.794 171.363L299.923 177.885C299.187 178.584 298.854 179.608 299.039 180.607L300.764 189.922C301.223 192.403 298.6 194.308 296.383 193.105L288.057 188.586C287.164 188.101 286.087 188.101 285.195 188.586L276.869 193.105C274.651 194.308 272.029 192.403 272.488 189.922L274.213 180.607C274.398 179.608 274.065 178.584 273.328 177.885L266.458 171.363C264.628 169.626 265.63 166.543 268.131 166.213L277.523 164.975C278.53 164.842 279.401 164.209 279.839 163.293L283.918 154.743Z"></path><path fill="#000000" d="M361.704 154.708C362.791 152.431 366.033 152.431 367.119 154.708L371.199 163.258C371.636 164.174 372.508 164.807 373.515 164.94L382.906 166.178C385.408 166.508 386.41 169.591 384.58 171.328L377.709 177.85C376.973 178.549 376.64 179.573 376.825 180.572L378.55 189.886C379.009 192.368 376.387 194.273 374.169 193.069L365.843 188.551C364.95 188.066 363.873 188.066 362.981 188.551L354.655 193.069C352.437 194.273 349.815 192.368 350.274 189.886L351.999 180.572C352.184 179.573 351.851 178.549 351.115 177.85L344.244 171.328C342.414 169.591 343.416 166.508 345.918 166.178L355.309 164.94C356.316 164.807 357.187 164.174 357.625 163.258L361.704 154.708Z"></path><path fill="#ffa04b" d="M525.5 765L605.5 825H525.5V765Z"></path><path stroke="#ffa04b" stroke-width="40" d="M545 825V746C545 675.86 488.14 619 418 619V619"></path><path fill="#ffa04b" d="M125 765L45 825H125V765Z"></path><path stroke="#ffa04b" stroke-width="40" d="M105.5 825V746C105.5 675.86 162.36 619 232.5 619V619"></path><path stroke="#ffa04b" stroke-width="40" d="M594.976 282L598 304.473C609.644 391.026 542.332 468 455 468V468"></path><path stroke="#ffa04b" stroke-width="40" d="M56.0237 282L53.0002 304.473C41.3558 391.026 108.668 468 196 468V468"></path></svg>