<svg xmlns="http://www.w3.org/2000/svg" fill="none" viewBox="0 0 879 944"><path fill="#3290ff" d="M251.455 243.283C287.457 108.921 548.465 62.1166 548.465 62.1166C548.465 62.1166 751.102 233.155 715.1 367.516L611.645 753.615L148 629.382L251.455 243.283Z"></path><path stroke="#000000" stroke-linecap="round" stroke-linejoin="round" stroke-width="16" d="M439.701 224L459.26 243.737L432.869 251.157"></path><circle cx="540.398" cy="265.474" r="12" fill="#000000" transform="rotate(15 540.398 265.474)"></circle><path stroke="#000000" stroke-linecap="round" stroke-width="16" d="M449.01 305.176C460.874 324.918 486.821 331.872 506.964 320.709"></path><path fill="#000000" d="M489.301 332.536C485.299 347.473 475.135 357.728 466.599 355.441C458.064 353.154 454.389 339.191 458.392 324.254L489.301 332.536Z"></path><path fill="#3290ff" d="M568 884L648 944H568V884Z"></path><path stroke="#3290ff" stroke-width="80" d="M580 944L580 693"></path><path stroke="#3290ff" stroke-width="80" d="M643 449C643 449 772 491 812 693"></path><path stroke="#3290ff" stroke-width="80" d="M260 360C260 360 131 318 91.0005 116"></path><path fill="#3290ff" d="M160.803 782.197L68 819.447L145.274 840.153L160.803 782.197Z"></path><path stroke="#3290ff" stroke-width="80" d="M133.683 837.047L198.646 594.6"></path></svg>