<svg xmlns="http://www.w3.org/2000/svg" fill="none" viewBox="0 0 644 685"><g clip-path="url(#a)"><path fill="#3290ff" d="M247.156 70.9333L321.835 0L396.514 70.9333L446.954 28.3733L479.74 111.467L573.054 97.28L549.095 200.64L643.67 241.173L580.62 344.533L620.972 407.36L549.095 456L321.835 451.709L94.5749 456L22.698 407.36L63.0499 344.533L0 241.173L94.5749 200.64L70.6159 97.28L163.93 111.467L196.716 28.3733L247.156 70.9333Z"></path><path stroke="#000000" stroke-linecap="round" stroke-linejoin="round" stroke-width="16" d="M214 256C230.57 271.998 257.433 272 274 256.004L214 256Z"></path><path stroke="#000000" stroke-linecap="round" stroke-width="16" d="M220 188C210.058 198.666 193.94 198.667 184 188.003"></path><path stroke="#000000" stroke-linecap="round" stroke-width="16" d="M304 188C294.058 198.666 277.94 198.667 268 188.003"></path><path fill="#3290ff" fill-rule="evenodd" d="M250 655L250 392H290V625L290 685H250H210L250 655Z" clip-rule="evenodd"></path><path fill="#3290ff" fill-rule="evenodd" d="M357 655L357 392H397V625L397 685H357H317L357 655Z" clip-rule="evenodd"></path><path stroke="#3290ff" stroke-width="40" d="M155 430.5V615"></path><path stroke="#3290ff" stroke-width="40" d="M489 430.5V615"></path></g><defs><clipPath id="a"><path fill="#fafafa" d="M0 0H643.67V685H0z"></path></clipPath></defs></svg>