<svg xmlns="http://www.w3.org/2000/svg" fill="none" viewBox="0 0 850 672"><path fill="#47b86d" d="M425.772 484C321.049 404.906 205 298.534 205 135.116C205 84.7942 237.832 44 278.333 44C318.034 44 350.366 83.1973 351.628 132.143H351.705C352.968 83.1973 385.3 44 425 44C464.7 44 497.032 83.1973 498.295 132.143H498.372C499.634 83.1973 531.966 44 571.667 44C612.168 44 645 84.7942 645 135.116C645 299.449 531.88 403.859 425.772 484Z"></path><path stroke="#000000" stroke-linecap="round" stroke-width="16" d="M401 184C391.058 173.334 374.94 173.333 365 183.997"></path><path stroke="#000000" stroke-linecap="round" stroke-width="16" d="M485 184C475.058 173.334 458.94 173.333 449 183.997"></path><path stroke="#000000" stroke-linecap="round" stroke-width="16" d="M395 244C411.57 259.998 438.433 260 455 244.004"></path><path fill="#000000" d="M441 260C441 275.464 433.837 288 425 288C416.163 288 409 275.464 409 260H441Z"></path><path stroke="#47b86d" stroke-width="40" d="M815 447C760.6 447 716.5 402.9 716.5 348.5C716.5 294.1 672.4 250 618 250H578"></path><path stroke="#47b86d" stroke-width="40" d="M35 53C89.4001 53 133.5 97.1 133.5 151.5C133.5 205.9 177.6 250 232 250H272"></path><path fill="#47b86d" d="M275 567L195 627H275V567Z"></path><path stroke="#47b86d" stroke-width="40" d="M255 627V540C255 473.726 308.726 420 375 420H383"></path><path fill="#47b86d" d="M632 547L692 627L692 547L632 547Z"></path><path stroke="#47b86d" stroke-width="40" d="M692 567L605 567C538.726 567 485 513.274 485 447L485 391"></path></svg>