<svg xmlns="http://www.w3.org/2000/svg" fill="none" viewBox="0 0 763 640"><g clip-path="url(#a)"><path fill="#80d9ff" d="M209.108 -1.44793e-05C209.108 -1.44793e-05 263.947 121.155 220.041 240C170.978 372.797 211.091 480 211.091 480L514.405 480C514.405 480 474.364 372.816 523.387 240.037C567.276 121.165 512.168 -1.23214e-06 512.168 -1.23214e-06L209.108 -1.44793e-05Z"></path><path stroke="#000000" stroke-linecap="round" stroke-linejoin="round" stroke-width="16" d="M338 156C354.57 171.998 381.433 172 398 156.004L338 156Z"></path><path stroke="#000000" stroke-linecap="round" stroke-width="16" d="M344 92L308 91.9973"></path><path stroke="#000000" stroke-linecap="round" stroke-width="16" d="M428 92L392 91.9973"></path><path stroke="#80d9ff" stroke-width="40" d="M503 210.45C503 210.45 556.816 191.087 623.481 214.794C683.165 236.018 744 209.368 744 209.368"></path><path stroke="#80d9ff" stroke-width="40" d="M20 210.45C20 210.45 73.8155 191.087 140.481 214.794C200.165 236.018 261 209.368 261 209.368"></path><path stroke="#80d9ff" stroke-width="40" d="M434.313 469C434.313 469 410.108 529.78 439.742 610L439.742 640"></path><path fill="#80d9ff" d="M419 610L379 640H459V610H419Z"></path><path stroke="#80d9ff" stroke-width="40" d="M286.313 469C286.313 469 262.108 529.78 291.742 610L291.742 640"></path><path fill="#80d9ff" d="M271 610L231 640H311V610H271Z"></path></g><defs><clipPath id="a"><path fill="#fafafa" d="M0 0H763V640H0z"></path></clipPath></defs></svg>