<svg xmlns="http://www.w3.org/2000/svg" fill="none" viewBox="0 0 753 951"><path fill="#80d9ff" d="M242 38C131.543 38 42 127.543 42 238V242.294C59.6991 234.213 79.3747 229.711 100.102 229.711C177.451 229.711 240.155 292.415 240.155 369.764V448.666C240.155 558.577 329.256 647.678 439.168 647.678C454.451 647.678 469.332 645.955 483.627 642.693V238C483.627 127.543 394.084 38 283.627 38H242Z"></path><circle cx="383.13" cy="220.598" r="12" fill="#000000"></circle><circle cx="287.13" cy="220.598" r="12" fill="#000000"></circle><path stroke="#000000" stroke-linecap="round" stroke-linejoin="round" stroke-width="16" d="M307.13 292.598C323.7 276.599 350.562 276.597 367.13 292.594L307.13 292.598Z"></path><path fill="#80d9ff" d="M640.5 883H600.5L560.5 913H640.5V883Z"></path><path fill="#80d9ff" d="M538.5 883H498.5L458.5 913H538.5V883Z"></path><path stroke="#80d9ff" stroke-linejoin="round" stroke-width="40" d="M620.5 913L620.5 883L463 623"></path><path stroke="#80d9ff" stroke-linejoin="round" stroke-width="40" d="M456 321L711.5 462"></path><path stroke="#80d9ff" stroke-linejoin="round" stroke-width="40" d="M456 392L637 539"></path><path stroke="#80d9ff" stroke-linejoin="round" stroke-width="40" d="M518.5 913L518.5 883L393 623"></path></svg>