<svg xmlns="http://www.w3.org/2000/svg" fill="none" viewBox="0 0 609 508"><g clip-path="url(#a)"><path fill="#3290ff" d="M26 120L294.108 400L562.216 120L435.312 0H152.904L26 120Z"></path><path stroke="#000000" stroke-linecap="round" stroke-width="16" d="M270 112C260.058 101.334 243.94 101.333 234 111.997"></path><path stroke="#000000" stroke-linecap="round" stroke-width="16" d="M354 112C344.058 101.334 327.94 101.333 318 111.997"></path><path stroke="#000000" stroke-linecap="round" stroke-width="16" d="M300 156C309.941 156 318 163.164 318 172.002C318 180.712 310.172 187.797 300.429 188"></path><path stroke="#000000" stroke-linecap="round" stroke-width="16" d="M300 188C309.941 188 318 195.164 318 204.002C318 212.712 310.172 219.797 300.429 220"></path><path stroke="#3290ff" stroke-linejoin="round" stroke-width="60" d="M488.192 174.647L534.41 372.523"></path><path stroke="#3290ff" stroke-linejoin="round" stroke-width="60" d="M120.347 174.647L74.1286 372.523"></path><path stroke="#3290ff" stroke-width="60" d="M194 508L194 478L234 295"></path><path fill="#3290ff" d="M222 478L262 508H182V478H222Z"></path><path stroke="#3290ff" stroke-width="60" d="M445.892 481.463L430.892 455.483L339.392 297"></path><path fill="#3290ff" d="M455.141 441.482L504.782 447.463L435.5 487.463L420.5 461.482L455.141 441.482Z"></path></g><defs><clipPath id="a"><path fill="#fafafa" d="M0 0H608.539V508H0z"></path></clipPath></defs></svg>