<svg xmlns="http://www.w3.org/2000/svg" fill="none" viewBox="0 0 945 961"><path fill="#ffa04b" d="M185.283 615.806L470.488 693.091L667.999 494.399L591.643 209.446L306.099 132.5L107.999 330.601L185.283 615.806Z"></path><path stroke="#000000" stroke-linecap="round" stroke-width="16" d="M391.979 366.389C392.383 389.418 411.376 408.414 434.402 408.818"></path><path stroke="#000000" stroke-linecap="round" stroke-width="16" d="M444.305 305.578L418.851 280.12"></path><path stroke="#000000" stroke-linecap="round" stroke-width="16" d="M520.672 381.945L495.218 356.488"></path><path fill="#ffa04b" fill-rule="evenodd" d="M302.999 865.5L302.999 602.5H262.999V835.5L262.999 895.5H302.999H342.999L302.999 865.5Z" clip-rule="evenodd"></path><path fill="#ffa04b" fill-rule="evenodd" d="M92.4013 734.892L160.471 480.852L199.108 491.205L138.803 716.267L138.803 716.267L123.274 774.222L46.0001 753.517L92.4013 734.892Z" clip-rule="evenodd"></path><path stroke="#ffa04b" stroke-width="40" d="M584 537.5L900 594.5"></path><path stroke="#ffa04b" stroke-width="40" d="M310.5 152L691.5 67"></path></svg>