<svg xmlns="http://www.w3.org/2000/svg" fill="none" viewBox="0 0 965 768"><path fill="#ffce51" d="M436.43 573.524C451.526 579.315 467.384 579.813 481.948 575.91C503.866 570.037 522.809 554.208 531.678 531.621C531.707 531.571 531.733 531.519 531.757 531.465C531.779 531.412 531.801 531.359 531.821 531.306L531.85 531.224C531.872 531.169 531.891 531.114 531.91 531.062L563.021 450.123L630.433 504.663C630.501 504.723 630.567 504.766 630.632 504.816C630.663 504.84 630.692 504.863 630.724 504.891C662.395 530.277 708.846 525.294 734.398 493.722C759.987 462.142 755.14 415.637 723.687 389.926L723.616 389.86C723.556 389.804 723.509 389.763 723.442 389.724L656.127 335.118L728.82 287.855C762.967 265.654 772.706 219.758 750.506 185.595C728.308 151.434 682.458 141.674 648.266 163.849L575.546 211.005L553.054 127.205C542.472 87.864 501.87 64.4127 462.533 74.953C423.196 85.4933 399.759 126.104 410.277 165.501L432.643 249.258L346.087 244.779C346.055 244.787 346.015 244.791 345.973 244.79C345.919 244.79 345.863 244.784 345.817 244.775C305.228 242.791 270.545 274.129 268.417 314.734C266.289 355.338 297.49 390.11 338.013 392.418C338.05 392.419 338.085 392.424 338.118 392.428L338.262 392.444L338.328 392.448L424.877 397.043L393.883 477.991C393.875 478.032 393.858 478.074 393.841 478.117C393.824 478.16 393.807 478.203 393.798 478.243C379.38 516.245 398.48 558.969 436.43 573.524Z"></path><path stroke="#000000" stroke-linecap="round" stroke-linejoin="round" stroke-width="16" d="M509.889 358.92L544.042 370.47L567.844 343.387"></path><path stroke="#000000" stroke-linecap="round" stroke-linejoin="round" stroke-width="16" d="M461.241 293.271L488.047 300.584L468.902 320.206"></path><path stroke="#000000" stroke-linecap="round" stroke-linejoin="round" stroke-width="16" d="M577.151 262.213L557.593 281.95L583.983 289.37"></path><path fill="#ffce51" d="M517 683.49L437 743.49H517V683.49Z"></path><path stroke="#ffce51" stroke-width="40" d="M497 743.49L497 714.492L555.5 450"></path><path fill="#ffce51" d="M628 683.49L708 743.49H628V683.49Z"></path><path stroke="#ffce51" stroke-width="40" d="M648 743.49L648 714.492L569 425"></path><path stroke="#ffce51" stroke-width="40" d="M607 344C783.731 344 927 200.731 927 24"></path><path stroke="#ffce51" stroke-width="40" d="M476.128 383.128C323.074 471.494 127.366 419.054 39 266"></path></svg>