<svg xmlns="http://www.w3.org/2000/svg" fill="none" viewBox="0 0 672 666"><path fill="#3290ff" d="M253.278 187.279L105.999 270L253.278 352.721L335.999 540L418.72 352.721L565.999 270L418.72 187.279L335.999 0L253.278 187.279Z"></path><circle cx="383.999" cy="242" r="12" fill="#000000"></circle><circle cx="287.999" cy="242" r="12" fill="#000000"></circle><path stroke="#000000" stroke-linecap="round" stroke-linejoin="round" stroke-width="16" d="M305.999 298C322.569 313.998 349.432 314 365.999 298.004L305.999 298Z"></path><path fill="#3290ff" fill-rule="evenodd" d="M542.642 547.051C542.642 518.487 527.036 492.206 501.957 478.534L377.215 410.531L358.07 445.652L482.811 513.654C495.036 520.318 502.642 533.128 502.642 547.051C502.642 568.059 485.612 585.089 464.605 585.089L376.749 585.09L372 585.09L372 585.09L372 622.59L372 625.09L372 665.09L402 625.089L464.605 625.089C507.704 625.089 542.642 590.15 542.642 547.051Z" clip-rule="evenodd"></path><path fill="#3290ff" fill-rule="evenodd" d="M129.356 547.051C129.356 518.487 144.962 492.206 170.041 478.534L294.783 410.531L313.929 445.652L189.187 513.654C176.962 520.318 169.356 533.128 169.356 547.051C169.356 568.059 186.386 585.089 207.393 585.089L295.249 585.09L299.998 585.09L299.998 585.09L299.998 622.59L299.998 625.09L299.998 665.09L269.998 625.089L207.393 625.089C164.294 625.089 129.356 590.15 129.356 547.051Z" clip-rule="evenodd"></path><path stroke="#3290ff" stroke-linejoin="round" stroke-width="40" d="M396 327.5C396 327.5 472.652 460.266 646.019 402.545"></path><path stroke="#3290ff" stroke-linejoin="round" stroke-width="40" d="M276.019 327.5C276.019 327.5 199.366 460.266 26 402.545"></path></svg>