<svg xmlns="http://www.w3.org/2000/svg" fill="none" viewBox="0 0 768 1001"><path fill="#ffce51" d="M315 916L235 976H315V916Z"></path><path fill="#ffce51" d="M447.5 916L527.5 976H447.5V916Z"></path><path fill="#ffce51" d="M612.807 243.524C600.486 245.75 587.795 246.912 574.833 246.912C457.635 246.912 362.627 151.911 362.627 34.7218C362.627 31.4635 362.7 28.2224 362.845 25C246.289 35.6751 155 133.687 155 253.018C155 379.481 257.527 482 384 482C510.473 482 613 379.481 613 253.018C613 249.838 612.935 246.673 612.807 243.524Z"></path><path stroke="#000000" stroke-linecap="round" stroke-width="16" d="M360 260C350.058 249.334 333.94 249.333 324 259.997"></path><path stroke="#000000" stroke-linecap="round" stroke-width="16" d="M444 260C434.058 249.334 417.94 249.333 408 259.997"></path><path stroke="#000000" stroke-linecap="round" stroke-width="16" d="M390 304C399.941 304 408 311.164 408 320.002C408 328.712 400.172 335.797 390.429 336"></path><path stroke="#000000" stroke-linecap="round" stroke-width="16" d="M390 336C399.941 336 408 343.164 408 352.002C408 360.712 400.172 367.797 390.429 368"></path><path stroke="#ffce51" stroke-width="40" d="M298 976.49L298 947.492L348.5 454"></path><path stroke="#ffce51" stroke-width="40" d="M470.5 976.49L470.5 947.492L420 454"></path><path stroke="#ffce51" stroke-linejoin="round" stroke-width="40" d="M744.5 427C744.5 427 635.5 515.5 490 427.003"></path><path stroke="#ffce51" stroke-linejoin="round" stroke-width="40" d="M24 427C24 427 133 515.5 278.5 427.003"></path></svg>