<svg xmlns="http://www.w3.org/2000/svg" fill="none" viewBox="0 0 617 730"><g clip-path="url(#a)"><path fill="#47b86d" d="M520.041 299.892C520.041 269.029 496.863 243.58 466.965 240C496.863 236.42 520.041 210.971 520.041 180.108C520.041 149.245 496.863 123.795 466.965 120.215C496.863 116.636 520.041 91.186 520.041 60.3232C520.041 27.0076 493.033 -1.18054e-06 459.717 -2.63681e-06C459.478 -2.64728e-06 459.239 0.00139278 459 0.00417595L459 -2.66817e-06C326.452 -8.46204e-06 219 107.452 219 240C219 372.548 326.452 480 459 480L459 479.996C459.239 479.999 459.478 480 459.717 480C493.033 480 520.041 452.992 520.041 419.677C520.041 388.814 496.863 363.364 466.965 359.785C496.863 356.205 520.041 330.755 520.041 299.892Z"></path><path stroke="#000000" stroke-linecap="round" stroke-width="16" d="M301.541 164C291.599 153.334 275.481 153.333 265.541 163.997"></path><path stroke="#000000" stroke-linecap="round" stroke-width="16" d="M385.541 164C375.599 153.334 359.481 153.333 349.541 163.997"></path><path stroke="#000000" stroke-linecap="round" stroke-linejoin="round" stroke-width="16" d="M295.541 220.004L325.541 240L355.541 220"></path><path stroke="#47b86d" stroke-width="40" d="M322.413 321.999C322.413 321.999 317.867 505.942 124.682 557.707"></path><path stroke="#47b86d" stroke-width="40" d="M302.095 285.223C302.095 285.223 206.185 442.249 13 390.486"></path><path fill="#47b86d" d="M605.5 700H565.5L525.5 730H605.5V700Z"></path><path stroke="#47b86d" stroke-linejoin="round" stroke-width="40" d="M585.5 730L585.5 700L460 440"></path><path fill="#47b86d" d="M339 700H299L259 730H339V700Z"></path><path stroke="#47b86d" stroke-width="40" d="M319 722L319 703.5L409 440"></path></g><defs><clipPath id="a"><path fill="#fafafa" d="M0 0H617V730H0z"></path></clipPath></defs></svg>