<svg xmlns="http://www.w3.org/2000/svg" fill="none" viewBox="0 0 861 908"><path fill="#47b86d" d="M529.14 89.8742L647.621 532.05C660.921 581.687 579.433 646.648 465.614 677.146C351.795 707.643 248.744 692.13 235.444 642.493L116.963 200.317C103.664 150.681 185.151 85.7199 298.97 55.2221C412.79 24.7244 515.84 40.2387 529.14 89.8742Z"></path><path stroke="#000000" stroke-linecap="round" stroke-linejoin="round" stroke-width="16" d="M246.961 259.393C267.107 270.557 293.055 263.606 304.918 243.867L246.961 259.393Z"></path><path stroke="#000000" stroke-linecap="round" stroke-width="16" d="M235.156 192.158C228.314 205.034 212.745 209.206 200.384 201.478"></path><path stroke="#000000" stroke-linecap="round" stroke-width="16" d="M316.295 170.416C309.452 183.291 293.884 187.464 281.522 179.736"></path><path fill="#47b86d" d="M537 847.27L457 907.27H537V847.27Z"></path><path stroke="#47b86d" stroke-width="80" d="M525 907.27L525 592.27"></path><path fill="#47b86d" d="M388 847.27L308 907.27H388V847.27Z"></path><path stroke="#47b86d" stroke-width="80" d="M376 907.27L376 592.27"></path><path stroke="#47b86d" stroke-linejoin="round" stroke-width="80" d="M214.792 415.723L94.3039 693.223"></path><path stroke="#47b86d" stroke-linejoin="round" stroke-width="80" d="M564.303 337.386L828.804 501.723"></path></svg>