<svg xmlns="http://www.w3.org/2000/svg" fill="none" viewBox="0 0 703 635"><g clip-path="url(#a)"><path fill="#ffce51" d="M268.415 78.2247C268.415 78.2247 161.223 179.084 129.664 260.013C89.9198 361.932 129.664 536 129.664 536H574.336C574.336 536 614.08 361.932 574.336 260.013C542.776 179.084 435.585 78.2245 435.585 78.2245V0H268.415V78.2247Z"></path><path stroke="#000000" stroke-linecap="round" stroke-linejoin="round" stroke-width="16" d="M322.5 280L352.5 260.004L382.5 280.004"></path><path stroke="#000000" stroke-linecap="round" stroke-width="16" d="M328.5 204.004L292.5 196.001"></path><path stroke="#000000" stroke-linecap="round" stroke-width="16" d="M412.5 196.003L376.5 204"></path><path fill="#ffce51" d="M623 575L703 635H623V575Z"></path><path stroke="#ffce51" stroke-width="40" d="M643 635V589.5C643 548.907 610.093 516 569.5 516V516"></path><path fill="#ffce51" d="M80 575L0 635H80V575Z"></path><path stroke="#ffce51" stroke-width="40" d="M60 635V589.5C60 548.907 92.9071 516 133.5 516V516"></path><path stroke="#ffce51" stroke-width="40" d="M659 457L660.942 442.559C668.383 387.216 625.341 338 569.5 338V338"></path><path stroke="#ffce51" stroke-width="40" d="M44 457L42.0584 442.559C34.6172 387.216 77.6586 338 133.5 338V338"></path></g><defs><clipPath id="a"><path fill="#fafafa" d="M0 0H703V635H0z"></path></clipPath></defs></svg>