<svg xmlns="http://www.w3.org/2000/svg" fill="none" viewBox="0 0 846 802"><path fill="#f4adb3" d="M845.5 237.778C845.5 173.283 792.978 121 728.188 121C690.106 121 656.263 139.063 634.832 167.051C622.612 183.009 605.275 196.053 585.118 196.053L385.5 196.053L385.5 505.947L585.118 505.947C605.275 505.947 622.612 518.99 634.832 534.949C656.263 562.937 690.106 581 728.188 581C792.978 581 845.5 528.717 845.5 464.222L845.5 237.778Z"></path><path stroke="#000000" stroke-linecap="round" stroke-width="16" d="M645.5 320L645.504 380"></path><circle cx="717.504" cy="398" r="12" fill="#000000" transform="rotate(90 717.504 398)"></circle><circle cx="717.504" cy="302" r="12" fill="#000000" transform="rotate(90 717.504 302)"></circle><path fill="#f4adb3" fill-rule="evenodd" d="M240 646C240 545.484 321.484 464 422 464V504C343.576 504 280 567.576 280 646V686V746H240H200L240 716V646Z" clip-rule="evenodd"></path><path fill="#f4adb3" fill-rule="evenodd" d="M40 544C40 351.805 195.805 196 388 196V236C217.896 236 80 373.896 80 544V686V746H40H0L40 716V544Z" clip-rule="evenodd"></path><path stroke="#f4adb3" stroke-width="40" d="M606.5 493C606.5 493 554.5 669.499 354.5 669.5"></path><path stroke="#f4adb3" stroke-width="40" d="M606.5 231.5C606.5 231.5 554.5 55.001 354.5 55"></path></svg>