<svg xmlns="http://www.w3.org/2000/svg" fill="none" viewBox="0 0 487 726"><g clip-path="url(#a)"><path fill="#ffa04b" fill-rule="evenodd" d="M388.204 239.105L486.47 182.292L414.043 56.8132L315.719 113.528L315.664 0H170.807L170.751 113.528L72.4286 56.8132L-7.05719e-05 182.292L98.267 239.105L-7.05719e-05 295.918L72.4286 421.397L170.751 364.682L170.807 478.21H315.664L315.719 364.682L414.043 421.397L486.47 295.918L388.204 239.105Z" clip-rule="evenodd"></path><path stroke="#000000" stroke-linecap="round" stroke-width="16" d="M267.235 189C277.177 199.666 293.295 199.667 303.235 189.003"></path><path stroke="#000000" stroke-linecap="round" stroke-width="16" d="M183.235 189C193.177 199.666 209.295 199.667 219.235 189.003"></path><ellipse cx="16" cy="24" fill="#000000" rx="16" ry="24" transform="matrix(-1 0 0 1 259.235 231)"></ellipse><path fill="#ffa04b" d="M275.752 666L355.752 726H275.752V666Z"></path><path stroke="#ffa04b" stroke-width="40" d="M295.752 726L295.752 433"></path><path fill="#ffa04b" d="M210.752 666L130.752 726H210.752V666Z"></path><path stroke="#ffa04b" stroke-width="40" d="M190.752 726L190.752 433"></path><path stroke="#ffa04b" stroke-linejoin="round" stroke-width="40" d="M316 346L386 576"></path><path stroke="#ffa04b" stroke-linejoin="round" stroke-width="40" d="M170.47 346L100.47 576"></path></g><defs><clipPath id="a"><path fill="#fafafa" d="M0 0H486.471V726H0z"></path></clipPath></defs></svg>