<svg xmlns="http://www.w3.org/2000/svg" fill="none" viewBox="0 0 557 657"><g clip-path="url(#a)"><path stroke="#ffce51" stroke-width="40" d="M360 421C414.4 421 458.5 376.9 458.5 322.5C458.5 268.1 502.6 224 557 224"></path><path fill="#ffce51" d="M0 454.473H380V0.000305176L190 109.789L0 0.000305176V454.473Z"></path><path stroke="#000000" stroke-linecap="round" stroke-linejoin="round" stroke-width="16" d="M129.5 220L153.5 205.998L129.929 192"></path><path stroke="#000000" stroke-linecap="round" stroke-linejoin="round" stroke-width="16" d="M249.5 220L225.5 205.998L249.071 192"></path><path stroke="#000000" stroke-linecap="round" stroke-width="16" d="M159.5 260C176.07 275.998 202.933 276 219.5 260.004"></path><path stroke="#ffce51" stroke-linejoin="round" stroke-width="40" d="M360 421V601"></path><path stroke="#ffce51" stroke-linejoin="round" stroke-width="40" d="M20 421V601"></path><path fill="#ffce51" d="M237 597L317 657H237V597Z"></path><path stroke="#ffce51" stroke-width="40" d="M257 657L257 364"></path><path fill="#ffce51" d="M142 597L62 657H142V597Z"></path><path stroke="#ffce51" stroke-width="40" d="M122 657L122 364"></path></g><defs><clipPath id="a"><path fill="#fafafa" d="M0 0H557V657H0z"></path></clipPath></defs></svg>