<svg xmlns="http://www.w3.org/2000/svg" fill="none" viewBox="0 0 579 545"><path fill="#ffa04b" d="M337 485L417 545H337V485Z"></path><path stroke="#ffa04b" stroke-width="40" d="M357 545L357 252"></path><path fill="#ffa04b" d="M242 485L162 545H242V485Z"></path><path stroke="#ffa04b" stroke-width="40" d="M222 545L222 252"></path><path fill="#ffa04b" fill-rule="evenodd" d="M60 209.058L290 0L520 209.058L450.246 274.368L450.246 420H127.868L127.868 274.368L60 209.058Z" clip-rule="evenodd"></path><path stroke="#000000" stroke-linecap="round" stroke-width="16" d="M314.212 218C324.154 207.334 340.271 207.333 350.212 217.997"></path><path stroke="#000000" stroke-linecap="round" stroke-width="16" d="M230.212 218C240.154 207.334 256.271 207.333 266.212 217.997"></path><path stroke="#000000" stroke-linecap="round" stroke-width="16" d="M320.212 278C303.642 293.998 276.779 294 260.212 278.004"></path><path fill="#000000" d="M274.212 294C274.212 309.464 281.375 322 290.212 322C299.048 322 306.212 309.464 306.212 294H274.212Z"></path><path stroke="#ffa04b" stroke-linejoin="round" stroke-width="40" d="M401 263C401 263 549.081 302.678 538.197 485.076"></path><path stroke="#ffa04b" stroke-linejoin="round" stroke-width="40" d="M178.769 263C178.769 263 30.6882 302.678 41.5719 485.076"></path></svg>