<svg xmlns="http://www.w3.org/2000/svg" fill="none" viewBox="0 0 562 975"><path fill="#80d9ff" d="M470 188.511C470 84.3887 385.462 0 281.199 0C176.941 0 92.4019 84.3977 92.4019 188.511C92.4019 259.894 132.16 322.012 190.799 354.015L90 723.652H469.488L369.046 355.297C429.053 323.7 470 260.908 470 188.511Z"></path><path stroke="#000000" stroke-linecap="round" stroke-width="16" d="M316 238C316 247.941 307.94 256 297.997 256C288.198 256 280.228 248.172 280 238.429"></path><path stroke="#000000" stroke-linecap="round" stroke-width="16" d="M280 238C280 247.941 271.94 256 261.997 256C252.198 256 244.228 248.172 244 238.429"></path><circle cx="328" cy="178" r="12" fill="#000000"></circle><circle cx="232" cy="178" r="12" fill="#000000"></circle><path fill="#80d9ff" d="M307 915L387 975H307V915Z"></path><path stroke="#80d9ff" stroke-width="40" d="M327 975L327 682"></path><path fill="#80d9ff" d="M252 915L172 975H252V915Z"></path><path stroke="#80d9ff" stroke-width="40" d="M232 975L232 682"></path><path stroke="#80d9ff" stroke-linejoin="round" stroke-width="40" d="M358 351C445 463 534 393.5 522.5 288.5"></path><path stroke="#80d9ff" stroke-linejoin="round" stroke-width="40" d="M202 351C122.5 457.5 38 615.5 38 615.5"></path></svg>