<svg xmlns="http://www.w3.org/2000/svg" fill="none" viewBox="0 0 650 977"><g clip-path="url(#a)"><path fill="#f4583e" fill-rule="evenodd" d="M378.655 141.191C508.558 -9.60263 635.328 213.446 441.258 249.574C635.328 287.272 506.993 508.75 378.655 357.955C444.388 546.447 189.279 544.877 255.014 357.955C125.111 508.75 -1.66125 287.272 192.41 249.574C-3.22634 213.446 125.111 -8.03191 255.014 141.191C187.714 -45.7302 444.388 -45.7302 378.655 141.191Z" clip-rule="evenodd"></path><path stroke="#000000" stroke-linecap="round" stroke-linejoin="round" stroke-width="16" d="M286.489 268.734C303.059 284.733 329.922 284.735 346.489 268.738"></path><path fill="#000000" d="M281.105 217.516C285.463 214.312 291.752 209.297 294.373 205.286C296.334 202.289 296.972 198.577 296.119 195.125C294.297 187.262 284.206 184.049 277.92 189.318C277.566 189.613 277.24 189.939 276.906 190.274C276.769 190.411 276.631 190.549 276.489 190.687C276.347 190.549 276.209 190.411 276.073 190.274C275.738 189.939 275.412 189.613 275.059 189.318C268.773 184.049 258.682 187.262 256.859 195.125C256.006 198.577 256.644 202.289 258.605 205.286C261.226 209.297 267.515 214.312 271.873 217.516C272.401 217.904 273.342 218.563 274.237 219.183C275.592 220.123 277.386 220.123 278.741 219.183C279.637 218.563 280.578 217.904 281.105 217.516Z"></path><path fill="#000000" d="M361.105 217.516C365.463 214.312 371.752 209.297 374.373 205.286C376.334 202.289 376.972 198.577 376.119 195.125C374.297 187.262 364.206 184.049 357.92 189.318C357.566 189.613 357.24 189.939 356.906 190.274C356.769 190.411 356.631 190.549 356.489 190.687C356.347 190.549 356.209 190.411 356.073 190.274C355.738 189.939 355.412 189.613 355.059 189.318C348.773 184.049 338.682 187.262 336.859 195.125C336.006 198.577 336.644 202.289 338.605 205.286C341.226 209.297 347.515 214.312 351.873 217.516C352.401 217.904 353.342 218.563 354.237 219.183C355.592 220.123 357.386 220.123 358.741 219.183C359.637 218.563 360.578 217.904 361.105 217.516Z"></path><path fill="#f4583e" d="M400.273 838.159L431.145 877.49L353.871 856.784L361.636 827.807L400.273 838.159Z"></path><path stroke="#f4583e" stroke-width="40" d="M373.19 861.96L380.695 833.95C380.695 833.95 541.36 634.236 345.984 474.734"></path><path fill="#f4583e" d="M318.555 931.326L298.914 977.307L368.196 937.307L353.196 911.326L318.555 931.326Z"></path><path stroke="#f4583e" stroke-width="40" d="M350.875 947.307L336.376 922.194C336.376 922.194 140.983 689.368 288.418 484.734"></path><path stroke="#f4583e" stroke-linejoin="round" stroke-width="40" d="M372 407.307C372 407.307 480.403 515.709 632.922 415.085"></path><path stroke="#f4583e" stroke-linejoin="round" stroke-width="40" d="M267.019 404.234C267.019 404.234 190.366 537 17 479.279"></path></g><defs><clipPath id="a"><path fill="#fafafa" d="M0 0H650V977H0z"></path></clipPath></defs></svg>