<svg xmlns="http://www.w3.org/2000/svg" fill="none" viewBox="0 0 1041 813"><path fill="#ffce51" d="M571.47 621.939C409.667 621.939 278.5 490.772 278.5 328.969L571.47 35.9994L864.44 328.969C864.44 490.772 733.273 621.939 571.47 621.939Z"></path><path fill="#000000" d="M516.116 293.664C520.474 290.461 526.763 285.446 529.384 281.435C531.345 278.438 531.983 274.725 531.13 271.274C529.308 263.41 519.216 260.197 512.93 265.467C512.577 265.761 512.251 266.088 511.916 266.423C511.78 266.559 511.642 266.698 511.5 266.836C511.358 266.698 511.22 266.559 511.084 266.423C510.749 266.088 510.423 265.761 510.07 265.467C503.784 260.197 493.692 263.41 491.87 271.274C491.017 274.725 491.655 278.438 493.616 281.435C496.237 285.446 502.526 290.461 506.884 293.664C507.412 294.052 508.353 294.711 509.248 295.332C510.603 296.271 512.397 296.271 513.752 295.332C514.647 294.711 515.588 294.052 516.116 293.664Z"></path><path fill="#000000" d="M636.116 293.664C640.474 290.461 646.763 285.446 649.384 281.435C651.345 278.438 651.983 274.725 651.13 271.274C649.308 263.41 639.216 260.197 632.93 265.467C632.577 265.761 632.251 266.088 631.916 266.423C631.78 266.559 631.642 266.698 631.5 266.836C631.358 266.698 631.22 266.559 631.084 266.423C630.749 266.088 630.423 265.761 630.07 265.467C623.784 260.197 613.692 263.41 611.87 271.274C611.017 274.725 611.655 278.438 613.616 281.435C616.237 285.446 622.526 290.461 626.884 293.664C627.412 294.052 628.353 294.711 629.248 295.332C630.603 296.271 632.397 296.271 633.752 295.332C634.647 294.711 635.588 294.052 636.116 293.664Z"></path><path stroke="#000000" stroke-linecap="round" stroke-width="16" d="M571.5 331.852C581.441 331.852 589.5 339.016 589.5 347.854C589.5 356.564 581.672 363.649 571.929 363.852"></path><path stroke="#000000" stroke-linecap="round" stroke-width="16" d="M571.5 363.852C581.441 363.852 589.5 371.016 589.5 379.854C589.5 388.564 581.672 395.649 571.929 395.852"></path><path fill="#ffce51" fill-rule="evenodd" d="M394.5 580.883H569V620.883H394.5C337.615 620.883 291.5 666.997 291.5 723.883H251.5H211.5L255.289 691.041C270.129 627.894 326.825 580.883 394.5 580.883Z" clip-rule="evenodd"></path><path fill="#ffce51" fill-rule="evenodd" d="M915.267 706.32C915.263 706.328 915.258 706.337 915.253 706.346C905.608 723.866 905.61 723.868 905.611 723.868L905.61 723.868L905.596 723.86L905.515 723.816L905.427 723.768C905.356 723.729 905.264 723.679 905.151 723.617C904.819 723.437 904.31 723.161 903.63 722.796C902.27 722.067 900.229 720.982 897.563 719.592C892.23 716.811 884.402 712.814 874.527 708.005C854.764 698.38 826.879 685.541 794.455 672.711C729.058 646.834 647.366 621.883 577 621.883L577 581.883C655.134 581.883 742.569 609.163 809.173 635.517C842.75 648.803 871.585 662.081 892.041 672.043C893.957 672.976 895.8 673.88 897.567 674.753L945.253 654.384L915.267 706.32Z" clip-rule="evenodd"></path><path stroke="#ffce51" stroke-width="40" d="M303.5 342.383C170.5 331.383 48 260.383 48 260.383"></path><path stroke="#ffce51" stroke-width="40" d="M833.5 346.883C890.833 342.383 993.5 340.083 993.5 266.883C993.5 193.683 891.167 137.716 824 136.883"></path></svg>