<svg xmlns="http://www.w3.org/2000/svg" fill="none" viewBox="0 0 590 809"><g clip-path="url(#a)"><path fill="#ffa8af" d="M240 0C176.308 0 124.675 51.6326 124.675 115.325C124.675 120.489 120.489 124.675 115.325 124.675C51.6326 124.675 0 176.308 0 240C0 303.692 51.6326 355.326 115.325 355.326C120.489 355.326 124.675 359.511 124.675 364.675C124.675 428.367 176.308 480 240 480C303.692 480 355.326 428.367 355.326 364.675C355.326 359.511 359.511 355.326 364.675 355.326C428.367 355.326 480 303.692 480 240C480 176.308 428.367 124.675 364.675 124.675C359.511 124.675 355.326 120.489 355.326 115.325C355.326 51.6326 303.692 0 240 0Z"></path><path stroke="#000000" stroke-linecap="round" stroke-linejoin="round" stroke-width="16" d="M264 144L240 158.002L263.571 172"></path><circle cx="12" cy="12" r="12" fill="#000000" transform="matrix(-1 0 0 1 168 146)"></circle><path stroke="#000000" stroke-linecap="round" stroke-width="16" d="M236 212C219.43 227.998 192.567 228 176 212.004"></path><path fill="#ffa8af" d="M353.97 759.252L359.951 808.893L399.951 739.611L373.97 724.611L353.97 759.252Z"></path><path stroke="#ffa8af" stroke-width="40" d="M389.951 756.933L364.838 742.434C364.838 742.434 169.666 647.577 200.599 443"></path><path fill="#ffa8af" d="M509.389 708.782L528.014 755.183L548.72 677.909L519.742 670.145L509.389 708.782Z"></path><path stroke="#ffa8af" stroke-width="40" d="M543.543 697.228L515.533 689.722C515.533 689.722 302.461 648.612 279.391 443"></path><path stroke="#ffa8af" stroke-linejoin="round" stroke-width="40" d="M325.329 348C325.329 348 473.41 387.678 462.526 570.076"></path><path stroke="#ffa8af" stroke-linejoin="round" stroke-width="40" d="M167.769 348C167.769 348 19.6881 387.678 30.5717 570.076"></path></g><defs><clipPath id="a"><path fill="#fafafa" d="M0 0H589.405V808.893H0z"></path></clipPath></defs></svg>