<svg xmlns="http://www.w3.org/2000/svg" fill="none" viewBox="0 0 786 897"><g clip-path="url(#a)"><path fill="#47b86d" d="M409.945 0L498.113 128.647L647.709 172.746L552.603 296.353L556.891 452.254L409.945 400L262.999 452.254L267.286 296.353L172.181 172.746L321.777 128.647L409.945 0Z"></path><path stroke="#000000" stroke-linecap="round" stroke-linejoin="round" stroke-width="16" d="M380.445 268.004L410.445 288L440.445 268"></path><path stroke="#000000" stroke-linecap="round" stroke-linejoin="round" stroke-width="16" d="M350.445 192L374.445 206.002L350.874 220"></path><path stroke="#000000" stroke-linecap="round" stroke-linejoin="round" stroke-width="16" d="M470.445 192L446.445 206.002L470.016 220"></path><path fill="#47b86d" d="M343.945 836.49L263.945 896.49H343.945V836.49Z"></path><path stroke="#47b86d" stroke-width="40" d="M323.945 896.49L323.945 867.492L374.445 374"></path><path fill="#47b86d" d="M476.445 836.49L556.445 896.49H476.445V836.49Z"></path><path stroke="#47b86d" stroke-width="40" d="M496.445 896.49L496.445 867.492L445.945 374"></path><path stroke="#47b86d" stroke-linejoin="round" stroke-width="40" d="M545.445 285C545.445 285 595.445 444.41 658.517 444.41C736.635 444.409 745.948 264.494 745.948 264.494"></path><path stroke="#47b86d" stroke-linejoin="round" stroke-width="40" d="M289.945 275.501C289.945 275.501 201.445 298.501 128.876 250.418C62.1321 206.194 41.4449 70.502 41.4449 70.502"></path></g><defs><clipPath id="a"><path fill="#fafafa" d="M0 0H785.499V896.49H0z"></path></clipPath></defs></svg>