<svg xmlns="http://www.w3.org/2000/svg" fill="none" viewBox="0 0 801 1197"><path fill="#ffa8af" fill-rule="evenodd" d="M391 23C523.548 23 631 130.452 631 263L631 865.762C631 998.31 523.548 1105.76 391 1105.76C258.452 1105.76 151 998.31 151 865.762L151 263C151 130.452 258.452 23 391 23ZM485.174 263C485.174 210.989 443.011 168.826 391 168.826C338.989 168.826 296.826 210.989 296.826 263L296.826 865.762C296.826 917.772 338.989 959.935 391 959.935C443.011 959.935 485.173 917.772 485.173 865.762L485.174 263Z" clip-rule="evenodd"></path><path stroke="#000000" stroke-linecap="round" stroke-width="16" d="M411 83C401.058 72.3344 384.94 72.3332 375 82.9973"></path><path stroke="#000000" stroke-linecap="round" stroke-width="16" d="M495 83C485.058 72.3344 468.94 72.3332 459 82.9973"></path><path stroke="#000000" stroke-linecap="round" stroke-linejoin="round" stroke-width="16" d="M405 123C421.57 138.998 448.433 139 465 123.004L405 123Z"></path><path fill="#ffa8af" d="M551.5 1115L631.5 1175H551.5V1115Z"></path><path stroke="#ffa8af" stroke-width="40" d="M571.5 1175V1129.5C571.5 1088.91 538.593 1056 498 1056V1056"></path><path fill="#ffa8af" d="M231 1115L151 1175H231V1115Z"></path><path stroke="#ffa8af" stroke-width="40" d="M211 1175V1129.5C211 1088.91 243.907 1056 284.5 1056V1056"></path><path stroke="#ffa8af" stroke-linejoin="round" stroke-width="40" d="M571 314C571 314 724.305 314 761 135"></path><path stroke="#ffa8af" stroke-linejoin="round" stroke-width="40" d="M231 314C231 314 77.6953 314 41 135"></path></svg>