<svg xmlns="http://www.w3.org/2000/svg" fill="none" viewBox="0 0 594 919"><g clip-path="url(#a)"><path fill="#f4583e" d="M353.5 714C315.756 714 284.713 685.307 280.995 648.544C252.369 671.91 210.13 670.248 183.441 643.559C156.752 616.87 155.09 574.631 178.456 546.005C141.693 542.287 113 511.244 113 473.5C113 435.756 141.693 404.713 178.456 400.995C155.09 372.369 156.752 330.13 183.441 303.441C210.13 276.752 252.369 275.09 280.995 298.456C284.713 261.693 315.756 233 353.5 233C391.244 233 422.287 261.693 426.005 298.456C454.631 275.09 496.87 276.752 523.559 303.441C550.248 330.13 551.91 372.369 528.544 400.995C565.307 404.713 594 435.756 594 473.5C594 511.244 565.307 542.287 528.544 546.005C551.91 574.631 550.248 616.87 523.559 643.559C496.87 670.248 454.631 671.91 426.005 648.544C422.287 685.307 391.244 714 353.5 714Z"></path><path stroke="#000000" stroke-linecap="round" stroke-linejoin="round" stroke-width="16" d="M293 482L317 496.002L293.429 510"></path><path stroke="#000000" stroke-linecap="round" stroke-linejoin="round" stroke-width="16" d="M413 482L389 496.002L412.571 510"></path><path stroke="#000000" stroke-linecap="round" stroke-width="16" d="M323 442C339.57 426.002 366.433 426 383 441.996"></path><path fill="#f4583e" fill-rule="evenodd" d="M30 308L293 308L293 268L60 268L0 268L-1.74846e-06 308L-3.49691e-06 348L30 308Z" clip-rule="evenodd"></path><path fill="#f4583e" fill-rule="evenodd" d="M453 45L453 308H413L413 75L413 15H453H493L453 45Z" clip-rule="evenodd"></path><path stroke="#f4583e" stroke-width="40" d="M268 625L217 859"></path><path stroke="#f4583e" stroke-width="40" d="M440 625L491 859"></path></g><defs><clipPath id="a"><path fill="#fafafa" d="M0 0H594V919H0z"></path></clipPath></defs></svg>