<svg xmlns="http://www.w3.org/2000/svg" fill="none" viewBox="0 0 665 681"><g clip-path="url(#a)"><path fill="#80d9ff" d="M295.999 425.504C417.501 425.504 515.999 327.124 515.999 205.766C450.184 205.766 396.831 152.476 396.831 86.7403C396.831 62.734 396.831 -0.000640869 396.831 -0.000640869H195.166C195.166 -0.000640869 195.166 62.734 195.166 86.7403C195.166 152.476 141.812 205.766 75.9988 205.766C75.9988 327.124 174.496 425.504 295.999 425.504Z"></path><path stroke="#000000" stroke-linecap="round" stroke-linejoin="round" stroke-width="16" d="M239.999 225.504L263.999 239.506L240.428 253.504"></path><circle cx="347.999" cy="239.504" r="12" fill="#000000"></circle><path stroke="#000000" stroke-linecap="round" stroke-width="16" d="M267.999 293.504C284.568 309.502 311.431 309.504 327.999 293.508"></path><path fill="#80d9ff" d="M423.5 608.783L522.782 620.745L453.5 660.745L423.5 608.783Z"></path><path stroke="#80d9ff" stroke-width="40" d="M470.82 650.745L324.32 397"></path><path fill="#80d9ff" d="M240 621L320 681H240V621Z"></path><path stroke="#80d9ff" stroke-width="40" d="M260 681L260 388"></path><path stroke="#80d9ff" stroke-linejoin="round" stroke-width="40" d="M463 330L636.866 376.587"></path><path stroke="#80d9ff" stroke-linejoin="round" stroke-width="40" d="M156.279 345L29 472.279"></path></g><defs><clipPath id="a"><path fill="#fafafa" d="M0 0H665V681H0z"></path></clipPath></defs></svg>