<svg xmlns="http://www.w3.org/2000/svg" fill="none" viewBox="0 0 884 978"><path fill="#3290ff" d="M641.5 665.333H241.5L241.5 36L341.5 102L441.5 36L541.5 102L641.5 36V665.333Z"></path><path stroke="#000000" stroke-linecap="round" stroke-linejoin="round" stroke-width="16" d="M411.5 240.004C428.07 256.002 454.933 256.004 471.5 240.008L411.5 240.004Z"></path><path stroke="#000000" stroke-linecap="round" stroke-width="16" d="M417.5 176.004L381.5 176.001"></path><path stroke="#000000" stroke-linecap="round" stroke-width="16" d="M501.5 176.004L465.5 176.001"></path><path fill="#3290ff" d="M281.5 881L201.5 941H281.5V881Z"></path><path stroke="#3290ff" stroke-width="40" d="M261.5 941L261.5 648"></path><path fill="#3290ff" d="M601.5 881L681.5 941H601.5V881Z"></path><path stroke="#3290ff" stroke-width="40" d="M621.5 941L621.5 648"></path><path stroke="#3290ff" stroke-linejoin="round" stroke-width="40" d="M621.5 335L841.5 403.983L690.344 535"></path><path stroke="#3290ff" stroke-linejoin="round" stroke-width="40" d="M262 335L42 403.983L193.156 535"></path></svg>