<svg xmlns="http://www.w3.org/2000/svg" fill="none" viewBox="0 0 528 871"><g clip-path="url(#a)"><path fill="#f4583e" d="M74 0.000145912V207.791C74 312.725 159.066 397.791 264 397.791C368.934 397.791 454 312.725 454 207.791V0C416.66 66.3557 345.564 111.177 264 111.177C182.436 111.177 111.341 66.3558 74 0.000145912Z"></path><path stroke="#000000" stroke-linecap="round" stroke-linejoin="round" stroke-width="16" d="M234 276.004C250.57 292.002 277.433 292.004 294 276.008L234 276.004Z"></path><path stroke="#000000" stroke-linecap="round" stroke-width="16" d="M240 212.004L204 204.001"></path><path stroke="#000000" stroke-linecap="round" stroke-width="16" d="M324 204.003L288 212"></path><path fill="#f4583e" d="M198 810.525L118 870.525H198V810.525Z"></path><path stroke="#f4583e" stroke-width="40" d="M178 870.525L178 841.527L228.5 348.035"></path><path fill="#f4583e" d="M330.5 810.525L410.5 870.525H330.5V810.525Z"></path><path stroke="#f4583e" stroke-width="40" d="M350.5 870.525L350.5 841.527L300 348.035"></path><path stroke="#f4583e" stroke-width="40" d="M357.222 314.001C357.222 314.001 514.249 409.91 462.486 603.096"></path><path stroke="#f4583e" stroke-width="40" d="M170.486 314.001C170.486 314.001 13.4595 409.91 65.2224 603.096"></path></g><defs><clipPath id="a"><path fill="#fafafa" d="M0 0H527.708V870.525H0z"></path></clipPath></defs></svg>