<svg xmlns="http://www.w3.org/2000/svg" fill="none" viewBox="0 0 543 763"><g clip-path="url(#a)"><path fill="#f4adb3" d="M156.5 -23H386.5L501.5 307L386.5 637H156.5L41.5 307L156.5 -23Z"></path><path stroke="#000000" stroke-linecap="round" stroke-width="16" d="M247.5 137.002L211.5 136.999"></path><path stroke="#000000" stroke-linecap="round" stroke-width="16" d="M331.5 137.002L295.5 136.999"></path><path stroke="#000000" stroke-linecap="round" stroke-width="16" d="M241.5 217L301.5 216.996"></path><path fill="#f4adb3" fill-rule="evenodd" d="M156.5 710V637H196.5V680V740H156.5H116.5L156.5 710Z" clip-rule="evenodd"></path><path fill="#f4adb3" fill-rule="evenodd" d="M386.5 710V637H346.5V680V740H386.5H426.5L386.5 710Z" clip-rule="evenodd"></path><path stroke="#f4adb3" stroke-width="40" d="M481.5 307V659.5C481.5 693.466 509.034 721 543 721V721"></path><path stroke="#f4adb3" stroke-width="40" d="M61.5 307V659.5C61.5 693.466 33.9655 721 0 721V721"></path></g><defs><clipPath id="a"><path fill="#fafafa" d="M0 0H543V763H0z"></path></clipPath></defs></svg>