<svg xmlns="http://www.w3.org/2000/svg" fill="none" viewBox="0 0 769 1073"><g clip-path="url(#a)"><path fill="#f4583e" d="M248.822 62.1165C303.14 47.5623 359.551 81.9612 374.821 138.949L385.507 178.83L415.794 170.714C472.781 155.444 530.777 187.099 545.332 241.416C559.886 295.733 525.487 352.145 468.5 367.415C468.5 367.415 382.297 383.861 408.071 480.051C441.907 606.329 526.534 680.923 440.42 714.636C430.578 718.489 424.727 720.047 414.278 721.641C322.581 735.63 353.712 629.961 319.876 503.683C294.102 407.493 211.225 436.351 211.225 436.351C154.238 451.621 96.2416 419.967 81.6873 365.649C67.1331 311.332 101.532 254.92 158.519 239.651L188.806 231.535L178.12 191.654C162.851 134.667 194.505 76.6708 248.822 62.1165Z"></path><path stroke="#000000" stroke-linecap="round" stroke-width="16" d="M349.786 324.941C337.922 344.683 311.975 351.638 291.832 340.474"></path><circle cx="12" cy="12" r="12" fill="#000000" transform="scale(-1 1) rotate(15 -1168.534 -879.314)"></circle><circle cx="12" cy="12" r="12" fill="#000000" transform="scale(-1 1) rotate(15 -1120.53 -1243.911)"></circle><path fill="#f4583e" d="M688.5 1013L768.5 1073H688.5V1013Z"></path><path stroke="#f4583e" stroke-width="40" d="M709 1073V922C709 786.138 598.862 676 463 676V676"></path><path stroke="#f4583e" stroke-width="40" d="M402.006 488V488C534.554 488 642.006 380.548 642.006 248V248"></path><path stroke="#f4583e" stroke-width="40" d="M343.822 494.001V494.001C215.79 528.307 139.81 659.908 174.116 787.939V787.939"></path><path fill="#f4583e" d="M116.319 980.039L79.0693 1072.84L58.3638 995.568L116.319 980.039Z"></path><path stroke="#f4583e" stroke-width="40" d="M63.6696 1015.37L209.524 976.287C340.757 941.124 418.636 806.233 383.473 675V675"></path></g><defs><clipPath id="a"><path fill="#fafafa" d="M0 0H768.5V1073H0z"></path></clipPath></defs></svg>