<svg xmlns="http://www.w3.org/2000/svg" fill="none" viewBox="0 0 1093 1032"><path fill="#47b86d" d="M871 545C871 421.159 871 225 551 225C231 225 231 421.159 231 545C231 668.841 231 865 551 865C871 865 871 668.841 871 545Z"></path><path stroke="#000000" stroke-linecap="round" stroke-linejoin="round" stroke-width="16" d="M661 473.004L631 493L601 473"></path><path stroke="#000000" stroke-linecap="round" stroke-width="16" d="M675 401.002L711 392.999"></path><path stroke="#000000" stroke-linecap="round" stroke-width="16" d="M551 393.003L587 401"></path><path fill="#47b86d" fill-rule="evenodd" d="M673 920V838H593V941H621H673H701L673 920Z" clip-rule="evenodd"></path><path fill="#47b86d" fill-rule="evenodd" d="M403 920V838H483V941H455H403H375L403 920Z" clip-rule="evenodd"></path><path stroke="#47b86d" stroke-width="120" d="M287 438.5L275.25 438.5C179.291 438.5 101.5 360.709 101.5 264.75V264.75C101.5 168.791 179.29 91 275.25 91L350 91"></path><path stroke="#47b86d" stroke-width="120" d="M806.5 438.5L818.25 438.5C914.209 438.5 992 360.709 992 264.75V264.75C992 168.791 914.21 91 818.25 91L743.5 91"></path></svg>