<svg xmlns="http://www.w3.org/2000/svg" fill="none" viewBox="0 0 1123 1122"><g clip-path="url(#a)"><path fill="#3290ff" d="M462.848 90.8282C462.848 100.111 463.959 109.133 466.056 117.771C416.129 129.826 379.041 174.793 379.041 228.423C379.041 255.853 388.743 281.017 404.904 300.671C355.539 313.12 318.999 357.817 318.999 411.048C318.999 463.513 354.494 507.688 402.779 520.869C386.342 540.602 376.455 565.983 376.455 593.674C376.455 647.303 413.543 692.271 463.47 704.326C461.373 712.963 460.262 721.986 460.262 731.268C460.262 794.134 511.225 845.097 574.091 845.097C574.955 845.097 575.817 845.087 576.676 845.068C577.536 845.087 578.398 845.097 579.262 845.097C642.128 845.097 693.091 794.134 693.091 731.268C693.091 721.986 691.98 712.963 689.883 704.326C739.81 692.271 776.898 647.303 776.898 593.674C776.898 565.983 767.011 540.602 750.574 520.869C798.859 507.688 834.354 463.513 834.354 411.048C834.354 357.817 797.814 313.12 748.449 300.671C764.61 281.017 774.312 255.853 774.312 228.423C774.312 174.793 737.224 129.826 687.297 117.771C689.394 109.133 690.505 100.111 690.505 90.8282C690.505 27.9626 639.542 -23 576.677 -23C513.811 -23 462.848 27.9626 462.848 90.8282Z"></path><path stroke="#000000" stroke-linecap="round" stroke-linejoin="round" stroke-width="16" d="M607 161L583 175.002L606.571 189"></path><circle cx="12" cy="12" r="12" fill="#000000" transform="matrix(-1 0 0 1 511 163)"></circle><path stroke="#000000" stroke-linecap="round" stroke-width="16" d="M579 229C562.43 244.998 535.567 245 519 229.004"></path><path fill="#3290ff" fill-rule="evenodd" d="M506.5 1069L506.5 806H546.5V1039L546.5 1099H506.5H466.5L506.5 1069Z" clip-rule="evenodd"></path><path fill="#3290ff" fill-rule="evenodd" d="M718.5 885.25C718.5 839.825 681.675 803 636.25 803L575.5 803L575.5 843L636.25 843C659.584 843 678.5 861.916 678.5 885.25C678.5 908.584 659.584 927.5 636.25 927.5L579.5 927.5L579.5 967.5L579.5 1007.5L609.5 967.5L636.25 967.5C681.675 967.5 718.5 930.675 718.5 885.25Z" clip-rule="evenodd"></path><path stroke="#3290ff" stroke-width="40" d="M347 410H0"></path><path stroke="#3290ff" stroke-width="40" d="M1123 410H776"></path></g><defs><clipPath id="a"><path fill="#fafafa" d="M0 0H1123V1122H0z"></path></clipPath></defs></svg>