<svg xmlns="http://www.w3.org/2000/svg" fill="none" viewBox="0 0 703 685"><g clip-path="url(#a)"><path fill="#47b86d" d="M571.5 231C571.5 109.497 473.003 11 351.5 11V11C229.997 11 131.5 109.497 131.5 231V597H571.5V231Z"></path><circle cx="12" cy="12" r="12" fill="#000000" transform="matrix(-1 0 0 1 315.5 147)"></circle><circle cx="12" cy="12" r="12" fill="#000000" transform="matrix(-1 0 0 1 411.5 147)"></circle><path stroke="#000000" stroke-linecap="round" stroke-width="16" d="M344.5 202C334.559 202 326.5 209.164 326.5 218.002C326.5 226.712 334.328 233.797 344.071 234"></path><path stroke="#000000" stroke-linecap="round" stroke-width="16" d="M344.5 234C334.559 234 326.5 241.164 326.5 250.002C326.5 258.712 334.328 265.797 344.071 266"></path><path fill="#47b86d" fill-rule="evenodd" d="M663 650.5C663 598.861 621.139 557 569.5 557V597C599.047 597 623 620.953 623 650.5V696H663H703L663 666V650.5Z" clip-rule="evenodd"></path><path stroke="#47b86d" stroke-width="40" d="M643 210V255.5C643 296.093 610.093 329 569.5 329V329"></path><path fill="#47b86d" fill-rule="evenodd" d="M40 650.5C40 598.861 81.8614 557 133.5 557V597C103.953 597 80 620.953 80 650.5V696H40H0L40 666V650.5Z" clip-rule="evenodd"></path><path stroke="#47b86d" stroke-width="40" d="M60 210V255.5C60 296.093 92.9071 329 133.5 329V329"></path></g><defs><clipPath id="a"><path fill="#fafafa" d="M0 0H703V685H0z"></path></clipPath></defs></svg>