<svg xmlns="http://www.w3.org/2000/svg" fill="none" viewBox="0 0 638 782"><g clip-path="url(#a)"><path fill="#47b86d" d="M319 359.999C299.83 360.126 284.199 342.901 284.085 321.527L283.795 266.742C279.035 289.602 269.208 311.071 254.872 329.022L249.448 335.815C236.7 351.778 214.759 353.196 200.442 338.982C186.126 324.768 184.854 300.305 197.602 284.342L203.026 277.549C211.659 266.739 216.695 253.123 217.543 238.947C201.993 272.916 174.727 298.647 141.759 310.004L133.965 312.689C115.65 318.998 96.2146 307.558 90.5559 287.136C84.8972 266.714 95.1578 245.044 113.473 238.735L121.267 236.05C208.682 205.938 247.218 0 319.482 0C391.747 0 429.318 205.938 516.733 236.05L524.527 238.735C542.842 245.044 553.103 266.714 547.444 287.136C541.785 307.558 522.35 318.998 504.035 312.689L496.241 310.004C463.273 298.647 436.007 272.916 420.457 238.947C421.305 253.123 426.341 266.739 434.974 277.549L440.398 284.342C453.146 300.305 451.875 324.768 437.558 338.982C423.241 353.196 401.3 351.778 388.552 335.815L383.128 329.022C368.792 311.071 358.965 289.602 354.205 266.742L353.914 321.527C353.801 342.901 338.17 360.126 319 359.999Z"></path><path stroke="#000000" stroke-linecap="round" stroke-width="16" d="M295 142.996L259 142.993"></path><path stroke="#000000" stroke-linecap="round" stroke-width="16" d="M379 142.996L343 142.993"></path><path stroke="#000000" stroke-linecap="round" stroke-width="16" d="M289 207L349 206.996"></path><path fill="#47b86d" d="M249 721L169 781H249V721Z"></path><path stroke="#47b86d" stroke-width="40" d="M232 781.49L232 752.492L282.5 259"></path><path fill="#47b86d" d="M389.5 721L469.5 781H389.5V721Z"></path><path stroke="#47b86d" stroke-width="40" d="M412.5 781.49L412.5 752.492L362 259"></path><path stroke="#47b86d" stroke-linejoin="round" stroke-width="40" d="M611.154 454.344C611.154 454.344 461.05 386.689 416.204 206.961"></path><path stroke="#47b86d" stroke-linejoin="round" stroke-width="40" d="M26.2167 454.35C26.2167 454.35 176.321 386.695 221.166 206.967"></path></g><defs><clipPath id="a"><path fill="#fafafa" d="M0 0H637.371V781.49H0z"></path></clipPath></defs></svg>