<svg xmlns="http://www.w3.org/2000/svg" fill="none" viewBox="0 0 786 860"><path fill="#ffa8af" d="M339.782 94.2177C339.782 69.7969 359.579 50 384 50C408.421 50 428.218 69.7969 428.218 94.2177V142.692L452.167 100.547C464.233 79.3152 491.226 71.8843 512.458 83.9498C533.69 96.0153 541.12 123.008 529.055 144.24L501.802 192.198L549.76 164.945C570.992 152.88 597.985 160.31 610.05 181.542C622.116 202.774 614.685 229.767 593.453 241.833L551.308 265.782H599.782C624.203 265.782 644 285.579 644 310C644 334.421 624.203 354.218 599.782 354.218H551.308L593.453 378.167C614.685 390.233 622.116 417.225 610.05 438.457C597.985 459.689 570.992 467.12 549.76 455.055L501.802 427.802L529.055 475.76C541.12 496.992 533.689 523.985 512.457 536.05C491.225 548.116 464.233 540.685 452.167 519.453L428.218 477.308V525.782C428.218 550.203 408.421 570 384 570C359.579 570 339.782 550.203 339.782 525.782V477.308L315.833 519.453C303.767 540.685 276.775 548.116 255.543 536.05C234.311 523.985 226.88 496.992 238.945 475.76L266.198 427.802L218.24 455.055C197.008 467.12 170.015 459.689 157.95 438.457C145.884 417.225 153.315 390.233 174.547 378.167L216.692 354.218H168.218C143.797 354.218 124 334.421 124 310C124 285.579 143.797 265.782 168.218 265.782H216.692L174.547 241.833C153.315 229.767 145.884 202.774 157.95 181.542C170.015 160.31 197.008 152.88 218.24 164.945L266.198 192.198L238.945 144.24C226.88 123.008 234.31 96.0153 255.542 83.9498C276.774 71.8843 303.767 79.3152 315.833 100.547L339.782 142.692V94.2177Z"></path><path stroke="#000000" stroke-linecap="round" stroke-width="16" d="M348 322C348 331.941 356.06 340 366.003 340C375.802 340 383.772 332.172 384 322.429"></path><path stroke="#000000" stroke-linecap="round" stroke-width="16" d="M384 322C384 331.941 392.06 340 402.003 340C411.802 340 419.772 332.172 420 322.429"></path><circle cx="12" cy="12" r="12" fill="#000000" transform="matrix(-1 0 0 1 348 250)"></circle><circle cx="12" cy="12" r="12" fill="#000000" transform="matrix(-1 0 0 1 444 250)"></circle><path fill="#ffa8af" d="M380 750L300 810H380V750Z"></path><path stroke="#ffa8af" stroke-width="40" d="M360 810L360 517"></path><path fill="#ffa8af" d="M388 750L468 810H388V750Z"></path><path stroke="#ffa8af" stroke-width="40" d="M408 810L408 517"></path><path stroke="#ffa8af" stroke-linejoin="round" stroke-width="40" d="M264.5 339L44 408.5L110 152"></path><path stroke="#ffa8af" stroke-linejoin="round" stroke-width="40" d="M522 339L742.5 408.5L567 540.5"></path></svg>