<svg xmlns="http://www.w3.org/2000/svg" fill="none" viewBox="0 0 613 700"><path fill="#3290ff" d="M404.359 414.703H275.075V368.892C275.075 360.636 270.002 353.228 262.304 350.244L213.572 331.352C175.082 316.431 149.717 279.393 149.717 238.113V-0.000152588H529.717V238.113C529.717 279.393 504.352 316.431 465.863 331.352L417.13 350.244C409.432 353.228 404.359 360.636 404.359 368.892V414.703Z"></path><circle cx="387.717" cy="120.406" r="12" fill="#000000"></circle><circle cx="291.717" cy="120.406" r="12" fill="#000000"></circle><path stroke="#000000" stroke-linecap="round" stroke-width="16" d="M309.717 180.406C326.287 196.405 353.15 196.406 369.717 180.41"></path><path fill="#3290ff" d="M364.217 640L444.217 700H364.217V640Z"></path><path stroke="#3290ff" stroke-width="40" d="M384.217 700L384.217 407"></path><path fill="#3290ff" d="M257.021 631.768L164.217 669.018L241.491 689.723L257.021 631.768Z"></path><path stroke="#3290ff" stroke-width="40" d="M222.173 684.546L298.007 401.529"></path><path stroke="#3290ff" stroke-linejoin="round" stroke-width="40" d="M207.833 280.441C87.2171 382 -55.8989 274.997 87.2163 130.496"></path><path stroke="#3290ff" stroke-linejoin="round" stroke-width="40" d="M477.79 268C477.79 268 586.192 376.403 485.568 528.922"></path></svg>